<mxfile host="65bd71144e">
    <diagram id="4v47v76_D8injQYrUOOF" name="Page-1">
        <mxGraphModel dx="728" dy="569" grid="1" gridSize="10" guides="1" tooltips="1" connect="1" arrows="1" fold="1" page="1" pageScale="1" pageWidth="827" pageHeight="1169" math="0" shadow="0">
            <root>
                <mxCell id="0"/>
                <mxCell id="1" parent="0"/>
                <mxCell id="12" style="edgeStyle=none;html=1;exitX=0.5;exitY=1;exitDx=0;exitDy=0;" edge="1" parent="1" source="2" target="4">
                    <mxGeometry relative="1" as="geometry"/>
                </mxCell>
                <mxCell id="14" style="edgeStyle=none;html=1;entryX=0.5;entryY=0;entryDx=0;entryDy=0;rounded=0;" edge="1" parent="1" target="5">
                    <mxGeometry relative="1" as="geometry">
                        <mxPoint x="360" y="300" as="sourcePoint"/>
                        <Array as="points">
                            <mxPoint x="200" y="300"/>
                        </Array>
                    </mxGeometry>
                </mxCell>
                <mxCell id="15" style="edgeStyle=none;rounded=0;html=1;entryX=0.5;entryY=0;entryDx=0;entryDy=0;" edge="1" parent="1" target="3">
                    <mxGeometry relative="1" as="geometry">
                        <mxPoint x="360" y="300" as="sourcePoint"/>
                        <Array as="points">
                            <mxPoint x="530" y="300"/>
                        </Array>
                    </mxGeometry>
                </mxCell>
                <mxCell id="2" value="factorial with while loops" style="whiteSpace=wrap;html=1;" vertex="1" parent="1">
                    <mxGeometry x="300" y="230" width="120" height="60" as="geometry"/>
                </mxCell>
                <mxCell id="17" style="edgeStyle=none;rounded=0;html=1;exitX=0.5;exitY=1;exitDx=0;exitDy=0;" edge="1" parent="1" source="3" target="11">
                    <mxGeometry relative="1" as="geometry"/>
                </mxCell>
                <mxCell id="3" value="ouput" style="whiteSpace=wrap;html=1;" vertex="1" parent="1">
                    <mxGeometry x="470" y="320" width="120" height="60" as="geometry"/>
                </mxCell>
                <mxCell id="13" style="edgeStyle=none;html=1;exitX=0.5;exitY=1;exitDx=0;exitDy=0;" edge="1" parent="1" source="4" target="8">
                    <mxGeometry relative="1" as="geometry"/>
                </mxCell>
                <mxCell id="19" style="edgeStyle=none;rounded=0;html=1;entryX=0.5;entryY=0;entryDx=0;entryDy=0;" edge="1" parent="1" target="7">
                    <mxGeometry relative="1" as="geometry">
                        <mxPoint x="360" y="470" as="sourcePoint"/>
                        <Array as="points">
                            <mxPoint x="200" y="470"/>
                        </Array>
                    </mxGeometry>
                </mxCell>
                <mxCell id="20" style="edgeStyle=none;rounded=0;html=1;entryX=0.5;entryY=0;entryDx=0;entryDy=0;" edge="1" parent="1" target="9">
                    <mxGeometry relative="1" as="geometry">
                        <mxPoint x="360" y="470" as="sourcePoint"/>
                        <Array as="points">
                            <mxPoint x="500" y="470"/>
                        </Array>
                    </mxGeometry>
                </mxCell>
                <mxCell id="21" style="edgeStyle=none;rounded=0;html=1;entryX=0.5;entryY=0;entryDx=0;entryDy=0;" edge="1" parent="1" target="10">
                    <mxGeometry relative="1" as="geometry">
                        <mxPoint x="360" y="470" as="sourcePoint"/>
                        <Array as="points">
                            <mxPoint x="650" y="470"/>
                        </Array>
                    </mxGeometry>
                </mxCell>
                <mxCell id="4" value="process" style="whiteSpace=wrap;html=1;" vertex="1" parent="1">
                    <mxGeometry x="300" y="320" width="120" height="60" as="geometry"/>
                </mxCell>
                <mxCell id="16" style="edgeStyle=none;rounded=0;html=1;exitX=0.5;exitY=1;exitDx=0;exitDy=0;" edge="1" parent="1" source="5" target="6">
                    <mxGeometry relative="1" as="geometry"/>
                </mxCell>
                <mxCell id="5" value="input" style="whiteSpace=wrap;html=1;" vertex="1" parent="1">
                    <mxGeometry x="140" y="320" width="120" height="60" as="geometry"/>
                </mxCell>
                <mxCell id="6" value="get num from user" style="whiteSpace=wrap;html=1;" vertex="1" parent="1">
                    <mxGeometry x="140" y="400" width="120" height="60" as="geometry"/>
                </mxCell>
                <mxCell id="7" value="check if num is positive number" style="whiteSpace=wrap;html=1;" vertex="1" parent="1">
                    <mxGeometry x="140" y="490" width="120" height="60" as="geometry"/>
                </mxCell>
                <mxCell id="8" value="check if num &amp;gt;= 0" style="whiteSpace=wrap;html=1;" vertex="1" parent="1">
                    <mxGeometry x="300" y="490" width="120" height="60" as="geometry"/>
                </mxCell>
                <mxCell id="9" value="loop_counter = loop_counter + 1" style="whiteSpace=wrap;html=1;" vertex="1" parent="1">
                    <mxGeometry x="440" y="490" width="120" height="60" as="geometry"/>
                </mxCell>
                <mxCell id="10" value="factorial = factorial * num" style="whiteSpace=wrap;html=1;" vertex="1" parent="1">
                    <mxGeometry x="590" y="490" width="120" height="60" as="geometry"/>
                </mxCell>
                <mxCell id="11" value="show factorial of num" style="whiteSpace=wrap;html=1;" vertex="1" parent="1">
                    <mxGeometry x="470" y="400" width="120" height="60" as="geometry"/>
                </mxCell>
            </root>
        </mxGraphModel>
    </diagram>
</mxfile>